{"title":"Bride of Frankenstein (1935)","uid":6832882,"size":1215927988,"categoryP":"video","categoryS":"hd___movies","magnet":"?xt=urn:btih:d92a6bf1bba87285dc21aa6b6af6a7371f3f03ea&amp;dn=Bride+of+Frankenstein+%281935%29&amp;tr=udp%3A%2F%2Ftracker.openbittorrent.com%3A80&amp;tr=udp%3A%2F%2Fopen.demonii.com%3A1337&amp;tr=udp%3A%2F%2Ftracker.coppersurfer.tk%3A6969&amp;tr=udp%3A%2F%2Fexodus.desync.com%3A6969","seeders":0,"leechers":1,"uploader":"mfccorrea","files":2,"time":1321926620,"description":"This greatest of all Frankenstein movies begins during a raging thunderstorm. Warm and cozy inside their palatial villa, Lord Byron (Gavin Gordon), Percy Shelley (Douglas Walton), and Shelley's wife Mary (Elsa Lanchester) engage in morbidly sparkling conversation. The wicked Byron mockingly chastises Mary for frightening the literary world with her recent novel Frankenstein, but Mary insists that her horror tale preached a valuable moral, that man was not meant to dabble in the works of God. Moreover, Mary adds that her story did not end with the death of Frankenstein's monster, whereupon she tells the enthralled Byron and Shelley what happened next. Surviving the windmill fire that brought the original 1931 Frankenstein to a close, the Monster (Boris Karloff) quickly revives and goes on another rampage of death and destruction. Meanwhile, his ailing creator Henry Frankenstein (Colin Clive) discovers that his former mentor, the demented Doctor Praetorius (Ernst Thesiger), plans to create another life-sized monster -- this time a woman! After a wild and wooly &quot;creation&quot; sequence, the bandages are unwrapped, and the Bride of the Monster (Elsa Lanchester again) emerges. Alas, the Monster's tender efforts to connect with his new Mate are rewarded only by her revulsion and hoarse screams. &quot;She hate me,&quot; he growls, &quot;Just like others!&quot; Wonderfully acted and directed, The Bride of Frankenstein is further enhanced by the vivid Franz Waxman musical score; even the film's occasional lapses in logic and continuity (it was trimmed from 90 to 75 minutes after the first preview) are oddly endearing. Director James Whale was memorably embodied by Ian McKellen in the Oscar-winning 1998 biopic Gods and Monsters.\n\n\n      Complete name : Bride.of.Frankenstein.1935.720p.HDTV.x264-x0r.mkv\n      Format : Matroska\n      File size : 1.13 GiB\n      Duration : 1h 11mn\n      Overall bit rate : 2 261 Kbps\n      Movie name : Bride.of.Frankenstein.1935.720p.HDTV.x264-x0r\n      Encoded date : UTC 2011-10-14 02:09:19\n      Writing application : mkvmerge v2.9.7 ('Tenderness') built on Jul  5 2009 13:26:28\n      Writing library : libebml v0.7.8 + libmatroska v0.8.1\n   Video #1\n      ID : 1\n      Format : AVC\n      Format/Info : Advanced Video Codec\n      Format profile : &lt;a class=&quot;__cf_email__&quot; href=&quot;/cdn-cgi/l/email-protection&quot; data-cfemail=&quot;7931101e1139354d5749&quot;&gt;[email&amp;#160;protected]&lt;/a&gt;&lt;script cf-hash='f9e31' type=&quot;text/javascript&quot;&gt;\n/* &lt;![CDATA[ */!function(){try{var t=&quot;currentScript&quot;in document?document.currentScript:function(){for(var t=document.getElementsByTagName(&quot;script&quot;),e=t.length;e--;)if(t[e].getAttribute(&quot;cf-hash&quot;))return t[e]}();if(t&amp;&amp;t.previousSibling){var e,r,n,i,c=t.previousSibling,a=c.getAttribute(&quot;data-cfemail&quot;);if(a){for(e=&quot;&quot;,r=parseInt(a.substr(0,2),16),n=2;a.length-n;n+=2)i=parseInt(a.substr(n,2),16)^r,e+=String.fromCharCode(i);e=document.createTextNode(e),c.parentNode.replaceChild(e,c)}}}catch(u){}}();/* ]]&gt; */&lt;/script&gt;\n      Format settings, CABAC : Yes\n      Format settings, ReFrames : 8 frames\n      Muxing mode : Container profile=&lt;a class=&quot;__cf_email__&quot; href=&quot;/cdn-cgi/l/email-protection&quot; data-cfemail=&quot;bde8d3d6d3d2cad3fd89938d&quot;&gt;[email&amp;#160;protected]&lt;/a&gt;&lt;script cf-hash='f9e31' type=&quot;text/javascript&quot;&gt;\n/* &lt;![CDATA[ */!function(){try{var t=&quot;currentScript&quot;in document?document.currentScript:function(){for(var t=document.getElementsByTagName(&quot;script&quot;),e=t.length;e--;)if(t[e].getAttribute(&quot;cf-hash&quot;))return t[e]}();if(t&amp;&amp;t.previousSibling){var e,r,n,i,c=t.previousSibling,a=c.getAttribute(&quot;data-cfemail&quot;);if(a){for(e=&quot;&quot;,r=parseInt(a.substr(0,2),16),n=2;a.length-n;n+=2)i=parseInt(a.substr(n,2),16)^r,e+=String.fromCharCode(i);e=document.createTextNode(e),c.parentNode.replaceChild(e,c)}}}catch(u){}}();/* ]]&gt; */&lt;/script&gt;\n      Codec ID : V_MPEG4/ISO/AVC\n      Duration : 1h 11mn\n      Bit rate : 1 832 Kbps\n      Nominal bit rate : 1 875 Kbps\n      Width : 972 pixels\n      Height : 720 pixels\n      Display aspect ratio : 4:3\n      Frame rate mode : Variable\n      Frame rate : 25.000 fps\n      Resolution : 24 bits\n      Colorimetry : 4:2:0\n      Scan type : Progressive\n      Bits/(Pixel*Frame) : 0.105\n      Stream size : 940 MiB (81%)\n      Writing library : x264 core 112\n   Audio #2\n      ID : 2\n      Format : AC-3\n      Format/Info : Audio Coding 3\n      Format profile : Dolby Digital\n      Codec ID : A_AC3\n      Duration : 1h 11mn\n      Bit rate mode : Constant\n      Bit rate : 384 Kbps\n      Channel(s) : 2 channels\n      Channel positions : L R\n      Sampling rate : 48.0 KHz\n      Stream size : 197 MiB (17%)\n      Language : English\n   Text #3\n      ID : 3\n      Format : UTF-8\n      Codec ID : S_TEXT/UTF8\n      Codec ID/Info : UTF-8 Plain Text\n      Language : English\n\n &lt;a href=&quot;\nhttp://www.imdb.com/title/tt0026138/&quot; rel=&quot;nofollow&quot; target=&quot;_NEW&quot;&gt;\nhttp://www.imdb.com/title/tt0026138/&lt;/a&gt;\n\nLanguage: English\nSubtitles: English (in the mkv) and Portuguese (srt)\n\n","torrent":{"xt":"urn:btih:d92a6bf1bba87285dc21aa6b6af6a7371f3f03ea","amp;dn":"Bride+of+Frankenstein+%281935%29","amp;tr":["udp%3A%2F%2Ftracker.openbittorrent.com%3A80","udp%3A%2F%2Fopen.demonii.com%3A1337","udp%3A%2F%2Ftracker.coppersurfer.tk%3A6969","udp%3A%2F%2Fexodus.desync.com%3A6969"],"infoHash":"d92a6bf1bba87285dc21aa6b6af6a7371f3f03ea","infoHashBuffer":{"type":"Buffer","data":[217,42,107,241,187,168,114,133,220,33,170,107,106,246,167,55,31,63,3,234]},"announce":[],"urlList":[]}}